<?xml version="1.0" encoding="UTF-8"?>
<svg width="21px" height="22px" viewBox="0 0 21 22" version="1.1" xmlns="http://www.w3.org/2000/svg" xmlns:xlink="http://www.w3.org/1999/xlink">
    <title>Notification</title>
    <g id="Pwages" stroke="none" stroke-width="1" fill="none" fill-rule="evenodd">
        <g id="Homepage" transform="translate(-330.000000, -71.000000)" fill-rule="nonzero">
            <g id="Notification" transform="translate(330.000000, 71.000000)">
                <path d="M12.5779266,19.25 C12.2590179,20.8165131 10.8702545,22 9.21008301,22 C7.55007937,22 6.16131592,20.8165131 5.84223939,19.25 L5.84223939,19.25 Z M9.21008301,1.83338929 C9.41720579,1.83338929 9.62164307,1.84530638 9.8233948,1.86444092 C9.43382262,2.69125364 9.21008301,3.61071777 9.21008301,4.58338929 C9.21008301,8.1215973 12.0893249,11 15.6266937,11 C15.6303864,11 15.634079,10.9991608 15.6377716,10.9991608 C15.6918182,12.7333527 16.462738,14.3752289 17.7956085,15.4925843 C18.254837,15.8784637 18.4656525,16.4697876 18.3427887,17.0619507 C18.1843414,17.8273315 17.4481659,18.3333893 16.6671753,18.3333893 L16.6671753,18.3333893 L1.74845885,18.3333893 C1.00405886,18.3333893 0.294570934,17.875 0.100204457,17.1572876 C-0.0666351211,16.5402832 0.139648438,15.9078369 0.604415883,15.5108795 C1.99871826,14.3320923 2.7934723,12.6197204 2.7934723,10.8056335 L2.7934723,10.8056335 L2.7934723,8.25 C2.7934723,4.70608523 5.66633607,1.83338929 9.21008301,1.83338929 Z" id="Combined-Shape" fill="#FFFFFF" opacity="0.900000036"></path>
                <path d="M20.210083,4.58338929 C20.210083,7.11468506 18.1581574,9.16661071 15.6266937,9.16661071 C13.0953979,9.16661071 11.0434723,7.11468506 11.0434723,4.58338929 C11.0434723,2.05209348 13.0953979,0 15.6266937,0 C18.1581574,0 20.210083,2.05209348 20.210083,4.58338929 Z" id="Path" fill="#E15656"></path>
            </g>
        </g>
    </g>
</svg>