<?xml version="1.0" encoding="UTF-8"?>
<svg width="22px" height="14px" viewBox="0 0 22 14" version="1.1" xmlns="http://www.w3.org/2000/svg" xmlns:xlink="http://www.w3.org/1999/xlink">
    <title>back</title>
    <g id="Pages" stroke="none" stroke-width="1" fill="none" fill-rule="evenodd">
        <g id="Login" transform="translate(-24.000000, -75.000000)" fill="#042C5C" fill-rule="nonzero">
            <g id="back" transform="translate(24.000000, 75.000000)">
                <path d="M21.0476295,6.02320137 L3.25134749,6.02320137 L7.49780002,1.66742017 C7.8698163,1.28607636 7.8698163,0.667464491 7.49780002,0.286177093 C7.12578374,-0.0953923643 6.52265977,-0.0953923643 6.15119349,0.286177093 L0.27901221,6.30926564 C-0.09300407,6.69060945 -0.09300407,7.30927773 0.27901221,7.69050871 L6.15119349,13.7138793 C6.33714663,13.9047205 6.58084919,14 6.82449676,14 C7.06814432,14 7.31184688,13.9047205 7.49780002,13.7138793 C7.8698163,13.3325355 7.8698163,12.7139236 7.49780002,12.3326927 L3.25134749,7.97668581 L21.0476295,7.97668581 C21.5735343,7.97668581 22,7.53932507 22,6.99991538 C22,6.46050569 21.5735893,6.02320137 21.0476295,6.02320137 Z"></path>
            </g>
        </g>
    </g>
</svg>