<?xml version="1.0" encoding="UTF-8"?>
<svg width="14px" height="14px" viewBox="0 0 14 14" version="1.1" xmlns="http://www.w3.org/2000/svg" xmlns:xlink="http://www.w3.org/1999/xlink">
    <!-- Generator: Sketch 52.4 (67378) - http://www.bohemiancoding.com/sketch -->
    <title>clock</title>
    <desc>Created with Sketch.</desc>
    <g id="Pharmagy-Demo-Screens-(4)" stroke="none" stroke-width="1" fill="none" fill-rule="evenodd">
        <g id="01" transform="translate(-64.000000, -234.000000)" fill="#C2DDFF" fill-rule="nonzero">
            <g id="main-items" transform="translate(35.000000, 194.000000)">
                <g id="rectangle-01">
                    <g id="clock" transform="translate(29.000000, 40.000000)">
                        <path d="M7,13.9162393 C10.8290598,13.9162393 13.9282051,10.8051282 13.9282051,6.98803419 C13.9282051,3.15897436 10.817094,0.0598290598 7,0.0598290598 C3.18290598,0.0598290598 0.0717948718,3.15897436 0.0717948718,6.98803419 C0.0717948718,10.8051282 3.17094017,13.9162393 7,13.9162393 Z M7,1.02905983 C10.2905983,1.02905983 12.9589744,3.6974359 12.9589744,6.98803419 C12.9589744,10.2786325 10.2905983,12.9470085 7,12.9470085 C3.70940171,12.9470085 1.04102564,10.2666667 1.04102564,6.98803419 C1.04102564,3.6974359 3.70940171,1.02905983 7,1.02905983 Z" id="Shape"></path>
                        <path d="M6.67692308,7.8017094 L8.98632479,7.8017094 C9.26153846,7.8017094 9.47692308,7.58632479 9.47692308,7.31111111 C9.47692308,7.03589744 9.26153846,6.82051282 8.98632479,6.82051282 L7.16752137,6.82051282 L7.16752137,3.97264957 C7.16752137,3.6974359 6.95213675,3.48205128 6.67692308,3.48205128 C6.4017094,3.48205128 6.18632479,3.6974359 6.18632479,3.97264957 L6.18632479,7.31111111 C6.18632479,7.58632479 6.4017094,7.8017094 6.67692308,7.8017094 Z" id="Path"></path>
                    </g>
                </g>
            </g>
        </g>
    </g>
</svg>