<?xml version="1.0" encoding="UTF-8"?>
<svg width="305px" height="271px" viewBox="0 0 305 271" version="1.1" xmlns="http://www.w3.org/2000/svg" xmlns:xlink="http://www.w3.org/1999/xlink">
    <!-- Generator: Sketch 52.4 (67378) - http://www.bohemiancoding.com/sketch -->
    <title>onboarding graphic</title>
    <desc>Created with Sketch.</desc>
    <defs>
        <rect id="path-1" x="0" y="0" width="375" height="289"></rect>
    </defs>
    <g id="dribbble.com/patrykpustol" stroke="none" stroke-width="1" fill="none" fill-rule="evenodd">
        <g id="Login-screen" transform="translate(-43.000000, -67.000000)">
            <g id="onboarding-graphic" transform="translate(0.000000, 63.000000)">
                <mask id="mask-2" fill="white">
                    <use xlink:href="#path-1"></use>
                </mask>
                <g id="Mask"></g>
                <g mask="url(#mask-2)">
                    <g transform="translate(34.000000, 0.000000)">
                        <path d="M281.008799,157 L285,157 C292.179702,157 298,162.820298 298,170 C298,177.179702 292.179702,183 285,183 L268.931372,183 C272.577956,185.302631 275,189.368466 275,194 C275,201.179702 269.179702,207 262,207 L84,207 C76.8202983,207 71,201.179702 71,194 C71,186.820298 76.8202983,181 84,181 L85.0686282,181 C81.4220443,178.697369 79,174.631534 79,170 C79,164.595477 82.2979735,159.961237 86.9912007,158 L67,158 C59.8202983,158 54,152.179702 54,145 C54,138.65012 58.5526412,133.363567 64.5719,132.226364 C65.9539673,132.727017 67.4451044,133 69,133 L101,133 C108.179702,133 114,127.179702 114,120 C114,112.820298 108.179702,107 101,107 L91.9912007,107 C87.2979735,105.038763 84,100.404523 84,95 C84,90.3684663 86.4220443,86.3026314 90.0686282,84 L78,84 C70.8202983,84 65,78.1797017 65,71 C65,63.8202983 70.8202983,58 78,58 L98,58 C90.8202983,58 85,52.1797017 85,45 C85,37.8202983 90.8202983,32 98,32 L302,32 C309.179702,32 315,37.8202983 315,45 C315,52.1797017 309.179702,58 302,58 L286,58 C293.179702,58 299,63.8202983 299,71 C299,75.6315337 296.577956,79.6973686 292.931372,82 L279,82 C271.820298,82 266,87.8202983 266,95 C266,102.179702 271.820298,108 279,108 L296,108 C297.775179,108 299.467254,107.644191 301.008799,107 L304,107 C311.179702,107 317,112.820298 317,120 C317,127.179702 311.179702,133 304,133 L281.008799,133 C279.467254,132.355809 277.775179,132 276,132 L249,132 C241.820298,132 236,137.820298 236,145 C236,152.179702 241.820298,158 249,158 L276,158 C277.775179,158 279.467254,157.644191 281.008799,157 Z" id="cloud" fill="#F6F9FC" opacity="0.835389459" transform="translate(185.500000, 119.500000) rotate(-15.000000) translate(-185.500000, -119.500000) "></path>
                        <g id="earth" stroke-width="1" fill="none" transform="translate(54.000000, 51.000000)">
                            <path d="M100,200 C155.228475,200 200,155.228475 200,100 C200,44.771525 155.228475,0 100,0 C44.771525,0 0,44.771525 0,100 C0,155.228475 44.771525,200 100,200 Z" id="Oval" stroke="#E4E4E4" stroke-width="2" stroke-linecap="round" stroke-linejoin="round" stroke-dasharray="12"></path>
                            <g id="Earth" transform="translate(10.000000, 7.000000)">
                                <ellipse id="Oval-8" fill="#8AD1F6" cx="90.6818182" cy="93.7241379" rx="73.4090909" ry="73.862069"></ellipse>
                                <g id="Path-12-+-Path-13-Mask">
                                    <ellipse id="Oval-15" cx="93.6850649" cy="105.790835" rx="73.4090909" ry="73.862069"></ellipse>
                                    <path d="M105.05334,167.112732 C105.05334,167.112732 118.918943,156.495913 116.769742,150.653185 C114.620541,144.810457 84.2521159,134.160973 89.0770179,120.926511 C93.9019199,107.692048 113.28969,114.376573 120.432208,109.122418 C127.574726,103.868263 130.66624,93.6434962 137.70743,90.2929805 C144.74862,86.9424648 145.512157,98.4472651 154.002708,93.1480611 C162.493259,87.8488572 159.922611,64.4383874 166.87852,72.0864405 C175.055397,72.0864405 194.420612,58.4041977 185.592105,94.9352934 C176.763598,131.466389 143.91342,167.112729 143.91342,167.112729 L105.05334,167.112732 Z" id="Path-12" fill="#8BE778"></path>
                                    <path d="M100.735158,168.974801 C100.735158,168.974801 120.769592,152.771775 118.620391,146.929047 C116.47119,141.086319 86.1027653,130.436835 90.9276673,117.202373 C95.7525693,103.967911 115.14034,110.652435 122.282857,105.39828 C129.425375,100.144125 132.516889,89.9193582 139.558079,86.5688425 C146.59927,83.2183268 147.362806,94.7231271 155.853357,89.4239232 C164.343908,84.1247193 161.77326,60.7142494 168.729169,68.3623026 C176.906046,68.3623026 196.271261,54.6800598 187.442754,91.2111555 C178.614247,127.742251 145.76407,163.388592 145.76407,163.388592 L100.735158,168.974801 Z" id="Path-12" stroke="#7C8495" stroke-width="2.47"></path>
                                    <path d="M41.6930163,59.1216435 C52.7202322,64.2038953 48.2710691,39.0267942 59.482271,45.4615458 C62.0409252,46.9301042 64.0849519,48.5909783 65.799258,50.3354964 C66.9057076,51.4614456 67.8748061,52.6222382 68.7562677,53.7886566 C72.4932167,58.7336772 74.6550457,63.7798115 79.0298808,66.7007406 C80.8289677,67.9019299 83.7870386,68.6196712 87.0714018,68.7972901 C89.4770618,68.9273886 92.0577761,68.7677139 94.4863297,68.2959951 C101.653092,66.9039333 107.494741,62.7943904 103.601983,55.395017 C96.589174,42.065033 107.625375,40.2772889 111.248776,33.1364133 C114.872177,25.9955376 117.951107,18.0281988 114.218556,7.3667439 C110.486005,-3.29471099 96.5891724,1.07273582 96.5891724,1.07273582 L3.04983153,42.0650346 C3.04983153,42.0650346 30.6658004,54.0393917 41.6930163,59.1216435 Z" id="Path-13" fill="#8BE778"></path>
                                    <path d="M39.2254838,61.6044021 C50.2526998,66.6866539 45.8035367,41.5095528 57.0147385,47.9443045 C59.5733928,49.4128628 61.6174194,51.0737369 63.3317255,52.8182551 C64.4381752,53.9442042 65.4072736,55.1049969 66.2887353,56.2714153 C70.0256843,61.2164358 72.1875133,66.2625701 76.5623483,69.1834992 C78.3614352,70.3846886 81.3195062,71.1024299 84.6038694,71.2800488 C87.0095293,71.4101472 89.5902436,71.2504725 92.0187972,70.7787537 C99.1855599,69.3866919 105.027208,65.277149 101.134451,57.8777756 C94.1216416,44.5477916 105.157842,42.7600475 108.781244,35.6191719 C112.404645,28.4782963 115.483574,20.5109574 111.751024,9.84950252 C108.018473,-0.811952372 94.1216399,3.55549444 94.1216399,3.55549444 L0.582299063,44.5477932 C0.582299063,44.5477932 28.1982679,56.5221504 39.2254838,61.6044021 Z" id="Path-13" stroke="#7C8495" stroke-width="2.47" stroke-linecap="round"></path>
                                </g>
                                <ellipse id="Oval-8" stroke="#7C8495" stroke-width="2.47" cx="90.6818182" cy="93.7241379" rx="73.4090909" ry="73.862069"></ellipse>
                                <path d="M116.147289,56.0581344 C123.22722,60.8810663 136.457311,62.6244484 129.370092,48.8797191 C122.282874,35.1349898 109.067358,51.2352025 116.147289,56.0581344 Z" id="Path-13" stroke="#7C8495" stroke-width="2.47" fill="#8BE778"></path>
                                <path d="M20.1472891,103.058134 C12,110 46.0872185,119.744729 39,106 C31.9127815,92.2552707 28.2945782,96.1162687 20.1472891,103.058134 Z" id="Path-13" stroke="#7C8495" stroke-width="2.47" fill="#8BE778"></path>
                                <path d="M80.0984834,155.13801 C86.7109857,155.81927 84.9266019,146.244786 72.8638953,138.679497 C60.8011888,131.114208 73.4859811,154.45675 80.0984834,155.13801" id="Path-13" stroke="#7C8495" stroke-width="2.47" fill="#8BE778"></path>
                            </g>
                        </g>
                        <g id="Additional-Elements" stroke-width="1" fill="none" transform="translate(161.500000, 156.500000) scale(-1, 1) translate(-161.500000, -156.500000) translate(0.000000, 24.000000)">
                            <circle id="Oval-11" fill="#BBBBBB" opacity="0.162430037" cx="286" cy="11" r="4"></circle>
                            <circle id="Oval-11" fill="#BBBBBB" opacity="0.170184235" cx="271" cy="31" r="2"></circle>
                            <circle id="Oval-11" fill="#BBBBBB" opacity="0.301364272" cx="295" cy="47" r="4"></circle>
                            <circle id="Oval-11" fill="#BBBBBB" opacity="0.184001866" cx="63" cy="36" r="4"></circle>
                            <circle id="Oval-11" fill="#BBBBBB" opacity="0.149778451" cx="52" cy="62" r="2"></circle>
                            <g id="Group-23" opacity="0.364272388" transform="translate(110.500000, 8.000000) rotate(-120.000000) translate(-110.500000, -8.000000) translate(105.000000, 2.000000)" stroke="#BBBBBB" stroke-linecap="round" stroke-width="2.8">
                                <path d="M2.35367281e-12,5.45474627 L10.8564065,5.45474627" id="Line"></path>
                                <g id="Group-22" transform="translate(4.925982, 5.522854) rotate(-270.000000) translate(-4.925982, -5.522854) translate(-0.574018, 3.522854)">
                                    <path d="M-2.93098879e-13,1.50187441 L10.8564065,1.50187441" id="Line"></path>
                                </g>
                            </g>
                            <g id="Group-23" opacity="0.46379431" transform="translate(245.000000, 227.000000) rotate(-330.000000) translate(-245.000000, -227.000000) translate(239.000000, 221.000000)" stroke="#BBBBBB" stroke-linecap="round" stroke-width="2.4">
                                <path d="M1.8189894e-12,5.9836886 L11.9673772,5.9836886" id="Line"></path>
                                <g id="Group-22" transform="translate(5.979611, 6.000000) rotate(-270.000000) translate(-5.979611, -6.000000) translate(-0.020389, 4.500000)">
                                    <path d="M1.15285559e-12,1.49592215 L11.9673772,1.49592215" id="Line"></path>
                                </g>
                            </g>
                            <circle id="Oval-11" fill="#BBBBBB" opacity="0.223822295" cx="211" cy="247" r="4"></circle>
                            <circle id="Oval-11" fill="#BBBBBB" opacity="0.135377799" cx="191" cy="216" r="2"></circle>
                            <g id="Group-23" opacity="0.390741604" transform="translate(309.000000, 140.500000) rotate(-15.000000) translate(-309.000000, -140.500000) translate(305.000000, 136.000000)" stroke="#BBBBBB" stroke-linecap="round" stroke-width="2.4">
                                <path d="M1.8189894e-12,4.15058515 L7.68204875,4.15058515" id="Line"></path>
                                <g id="Group-22" transform="translate(3.388219, 4.322373) rotate(-270.000000) translate(-3.388219, -4.322373) translate(-0.611781, 2.822373)">
                                    <path d="M2.10498285e-13,1.03764629 L7.68204875,1.03764629" id="Line"></path>
                                </g>
                            </g>
                            <circle id="Oval-11" fill="#BBBBBB" opacity="0.184001866" cx="78" cy="189" r="4"></circle>
                            <circle id="Oval-11" fill="#BBBBBB" opacity="0.149778451" cx="95" cy="149" r="2"></circle>
                            <g id="Group-23" opacity="0.364272388" transform="translate(43.500000, 211.000000) rotate(-120.000000) translate(-43.500000, -211.000000) translate(38.000000, 205.000000)" stroke="#BBBBBB" stroke-linecap="round" stroke-width="2.8">
                                <path d="M2.35367281e-12,5.45474627 L10.8564065,5.45474627" id="Line"></path>
                                <g id="Group-22" transform="translate(4.925982, 5.522854) rotate(-270.000000) translate(-4.925982, -5.522854) translate(-0.574018, 3.522854)">
                                    <path d="M-2.93098879e-13,1.50187441 L10.8564065,1.50187441" id="Line"></path>
                                </g>
                            </g>
                        </g>
                    </g>
                </g>
                <g id="Group-2" mask="url(#mask-2)">
                    <g transform="translate(148.000000, 73.000000)">
                        <path d="M8,23 C13.3333333,15.9455187 16,10.9455187 16,8 C16,3.581722 12.418278,0 8,0 C3.581722,0 0,3.581722 0,8 C0,10.9455187 2.66666667,15.9455187 8,23 Z" id="Oval-9" stroke="#7C8495" stroke-width="2" fill="#F25C62"></path>
                        <circle id="Oval-2" stroke="none" fill="#CA4248" cx="8" cy="8" r="3"></circle>
                    </g>
                </g>
                <g id="Group-2" mask="url(#mask-2)">
                    <g transform="translate(183.000000, 94.000000)">
                        <path d="M8,23 C13.3333333,15.9455187 16,10.9455187 16,8 C16,3.581722 12.418278,0 8,0 C3.581722,0 0,3.581722 0,8 C0,10.9455187 2.66666667,15.9455187 8,23 Z" id="Oval-9" stroke="#7C8495" stroke-width="2" fill="#F25C62"></path>
                        <circle id="Oval-2" stroke="none" fill="#CA4248" cx="8" cy="8" r="3"></circle>
                    </g>
                </g>
                <g id="Group-2" mask="url(#mask-2)">
                    <g transform="translate(166.000000, 179.000000)">
                        <path d="M8,23 C13.3333333,15.9455187 16,10.9455187 16,8 C16,3.581722 12.418278,0 8,0 C3.581722,0 0,3.581722 0,8 C0,10.9455187 2.66666667,15.9455187 8,23 Z" id="Oval-9" stroke="#7C8495" stroke-width="2" fill="#F25C62"></path>
                        <circle id="Oval-2" stroke="none" fill="#CA4248" cx="8" cy="8" r="3"></circle>
                    </g>
                </g>
                <g id="Group-2" mask="url(#mask-2)">
                    <g transform="translate(124.000000, 139.000000)">
                        <path d="M8,23 C13.3333333,15.9455187 16,10.9455187 16,8 C16,3.581722 12.418278,0 8,0 C3.581722,0 0,3.581722 0,8 C0,10.9455187 2.66666667,15.9455187 8,23 Z" id="Oval-9" stroke="#7C8495" stroke-width="2" fill="#F25C62"></path>
                        <circle id="Oval-2" stroke="none" fill="#CA4248" cx="8" cy="8" r="3"></circle>
                    </g>
                </g>
                <g id="Group-2" mask="url(#mask-2)">
                    <g transform="translate(223.000000, 139.000000)">
                        <path d="M8,23 C13.3333333,15.9455187 16,10.9455187 16,8 C16,3.581722 12.418278,0 8,0 C3.581722,0 0,3.581722 0,8 C0,10.9455187 2.66666667,15.9455187 8,23 Z" id="Oval-9" stroke="#7C8495" stroke-width="2" fill="#F25C62"></path>
                        <circle id="Oval-2" stroke="none" fill="#CA4248" cx="8" cy="8" r="3"></circle>
                    </g>
                </g>
                <g id="Group-2" mask="url(#mask-2)">
                    <g transform="translate(223.000000, 180.000000)">
                        <path d="M8,23 C13.3333333,15.9455187 16,10.9455187 16,8 C16,3.581722 12.418278,0 8,0 C3.581722,0 0,3.581722 0,8 C0,10.9455187 2.66666667,15.9455187 8,23 Z" id="Oval-9" stroke="#7C8495" stroke-width="2" fill="#F25C62"></path>
                        <circle id="Oval-2" stroke="none" fill="#CA4248" cx="8" cy="8" r="3"></circle>
                    </g>
                </g>
            </g>
        </g>
    </g>
</svg>