<?xml version="1.0" encoding="UTF-8"?>
<svg width="13px" height="12px" viewBox="0 0 13 12" version="1.1" xmlns="http://www.w3.org/2000/svg" xmlns:xlink="http://www.w3.org/1999/xlink">
    <!-- Generator: Sketch 52.4 (67378) - http://www.bohemiancoding.com/sketch -->
    <title>Path 11</title>
    <desc>Created with Sketch.</desc>
    <g id="Symbols" stroke="none" stroke-width="1" fill="none" fill-rule="evenodd">
        <g id="chatbar" transform="translate(-343.000000, -22.000000)" fill="#0D4E7D">
            <g id="Path-11">
                <path d="M343,22.5001206 L343,26.2508894 C343,26.5141213 343.204092,26.732272 343.46674,26.749782 L350.516611,27.2197733 C350.792142,27.2381421 351.000613,27.4763947 350.982244,27.7519254 C350.965582,28.0018607 350.766547,28.2008962 350.516611,28.2175585 L343.46674,28.6875499 C343.204092,28.7050598 343,28.9232105 343,29.1864425 L343,32.9372113 C343,33.2133536 343.223858,33.4372113 343.5,33.4372113 C343.57235,33.4372113 343.643838,33.4215098 343.709529,33.391191 L355.016377,28.1726456 C355.267103,28.0569259 355.376548,27.7598629 355.260828,27.5091368 C355.211002,27.4011799 355.124334,27.3145125 355.016377,27.2646862 L343.709529,22.0461409 C343.458803,21.9304212 343.16174,22.0398654 343.04602,22.2905915 C343.015701,22.3562824 343,22.4277706 343,22.5001206 Z"></path>
            </g>
        </g>
    </g>
</svg>