<?xml version="1.0" encoding="UTF-8"?>
<svg width="15px" height="15px" viewBox="0 0 15 15" version="1.1" xmlns="http://www.w3.org/2000/svg" xmlns:xlink="http://www.w3.org/1999/xlink">
    <!-- Generator: Sketch 52.4 (67378) - http://www.bohemiancoding.com/sketch -->
    <title>magnifying-glass</title>
    <desc>Created with Sketch.</desc>
    <g id="Pharmagy-Demo-Screens-(4)" stroke="none" stroke-width="1" fill="none" fill-rule="evenodd">
        <g id="01" transform="translate(-240.000000, -62.000000)" fill="#FFFFFF" fill-rule="nonzero">
            <g id="search-bar" transform="translate(35.000000, 47.000000)">
                <g id="magnifying-glass" transform="translate(205.000000, 15.000000)">
                    <path d="M14.8163265,13.9316327 L11.4459184,10.5612245 C12.3979592,9.40714286 12.9153061,7.97142857 12.9153061,6.45918367 C12.9153061,4.73265306 12.244898,3.11326531 11.0234694,1.89183673 C9.80510204,0.670408163 8.18265306,1.42108547e-14 6.45918367,1.42108547e-14 C4.73571429,1.42108547e-14 3.11326531,0.670408163 1.89183673,1.89183673 C0.670408163,3.11020408 -1.42108547e-14,4.73265306 -1.42108547e-14,6.45918367 C-1.42108547e-14,8.18265306 0.670408163,9.80510204 1.89183673,11.0265306 C3.11020408,12.244898 4.73265306,12.9183673 6.45918367,12.9183673 C7.9744898,12.9183673 9.41020408,12.4010204 10.5612245,11.4489796 L13.9316327,14.8163265 C14.1765306,15.0612245 14.5714286,15.0612245 14.8163265,14.8163265 C15.0612245,14.5714286 15.0612245,14.1765306 14.8163265,13.9316327 Z M2.77653061,10.1387755 C1.79081633,9.15612245 1.24897959,7.84897959 1.24897959,6.45918367 C1.24897959,5.06938776 1.79081633,3.75918367 2.77346939,2.77653061 C3.75612245,1.79387755 5.06326531,1.25204082 6.45612245,1.25204082 C7.84591837,1.25204082 9.15612245,1.79387755 10.1387755,2.77653061 C11.1214286,3.75918367 11.6632653,5.06632653 11.6632653,6.45918367 C11.6632653,7.84897959 11.1214286,9.15918367 10.1387755,10.1418367 C9.15612245,11.1244898 7.84591837,11.6663265 6.45612245,11.6663265 C5.06632653,11.6663265 3.75918367,11.1244898 2.77653061,10.1387755 Z" id="Shape"></path>
                </g>
            </g>
        </g>
    </g>
</svg>