<?xml version="1.0" encoding="UTF-8"?>
<svg width="48px" height="48px" viewBox="0 0 48 48" version="1.1" xmlns="http://www.w3.org/2000/svg" xmlns:xlink="http://www.w3.org/1999/xlink">
    <title>Up</title>
    <g id="Pages" stroke="none" stroke-width="1" fill="none" fill-rule="evenodd">
        <g id="Wallet" transform="translate(-24.000000, -372.000000)">
            <g id="Up" transform="translate(24.000000, 372.000000)">
                <rect id="Rectangle" fill-opacity="0.1" fill="#29BF76" x="0" y="0" width="48" height="48" rx="8"></rect>
                <g id="arrow" transform="translate(24.000000, 24.500000) rotate(-90.000000) translate(-24.000000, -24.500000) translate(13.000000, 17.000000)" fill="#1BC773" fill-rule="nonzero">
                    <path d="M21.6868476,6.82072581 L15.1440967,0.369112903 C14.7449071,-0.024516129 14.0975019,-0.024516129 13.6983123,0.369112903 C13.2990409,0.762822581 13.2990409,1.40104839 13.6983123,1.79475806 L18.4958662,6.52548387 L1.02230483,6.52548387 C0.457747212,6.52548387 0,6.97685484 0,7.53354839 C0,8.09016129 0.457747212,8.5416129 1.02230483,8.5416129 L18.4958662,8.5416129 L13.6984758,13.2723387 C13.2992045,13.6660484 13.2992045,14.3042742 13.6984758,14.6979839 C13.8980297,14.8946774 14.1597398,14.9932258 14.421368,14.9932258 C14.6829963,14.9932258 14.9446245,14.8946774 15.1442602,14.6979839 L21.6868476,8.24637097 C22.086119,7.85266129 22.086119,7.21443548 21.6868476,6.82072581 Z" id="Path"></path>
                </g>
            </g>
        </g>
    </g>
</svg>